<?xml version="1.0" encoding="utf-8"?>
<svg xmlns="http://www.w3.org/2000/svg" xmlns:xlink="http://www.w3.org/1999/xlink" style="margin: auto; background: none; display: block; shape-rendering: auto;" width="200px" height="200px" viewBox="0 0 100 100" preserveAspectRatio="xMidYMid">
<g transform="rotate(0 50 50)">
  <rect x="47" y="24" rx="3" ry="6" width="6" height="12" fill="#df1317">
    <animate attributeName="opacity" values="1;0" keyTimes="0;1" dur="0.4672897196261683s" begin="-0.4283489096573209s" repeatCount="indefinite"></animate>
  </rect>
</g><g transform="rotate(30 50 50)">
  <rect x="47" y="24" rx="3" ry="6" width="6" height="12" fill="#df1317">
    <animate attributeName="opacity" values="1;0" keyTimes="0;1" dur="0.4672897196261683s" begin="-0.38940809968847356s" repeatCount="indefinite"></animate>
  </rect>
</g><g transform="rotate(60 50 50)">
  <rect x="47" y="24" rx="3" ry="6" width="6" height="12" fill="#df1317">
    <animate attributeName="opacity" values="1;0" keyTimes="0;1" dur="0.4672897196261683s" begin="-0.3504672897196262s" repeatCount="indefinite"></animate>
  </rect>
</g><g transform="rotate(90 50 50)">
  <rect x="47" y="24" rx="3" ry="6" width="6" height="12" fill="#df1317">
    <animate attributeName="opacity" values="1;0" keyTimes="0;1" dur="0.4672897196261683s" begin="-0.31152647975077885s" repeatCount="indefinite"></animate>
  </rect>
</g><g transform="rotate(120 50 50)">
  <rect x="47" y="24" rx="3" ry="6" width="6" height="12" fill="#df1317">
    <animate attributeName="opacity" values="1;0" keyTimes="0;1" dur="0.4672897196261683s" begin="-0.2725856697819315s" repeatCount="indefinite"></animate>
  </rect>
</g><g transform="rotate(150 50 50)">
  <rect x="47" y="24" rx="3" ry="6" width="6" height="12" fill="#df1317">
    <animate attributeName="opacity" values="1;0" keyTimes="0;1" dur="0.4672897196261683s" begin="-0.23364485981308414s" repeatCount="indefinite"></animate>
  </rect>
</g><g transform="rotate(180 50 50)">
  <rect x="47" y="24" rx="3" ry="6" width="6" height="12" fill="#df1317">
    <animate attributeName="opacity" values="1;0" keyTimes="0;1" dur="0.4672897196261683s" begin="-0.19470404984423678s" repeatCount="indefinite"></animate>
  </rect>
</g><g transform="rotate(210 50 50)">
  <rect x="47" y="24" rx="3" ry="6" width="6" height="12" fill="#df1317">
    <animate attributeName="opacity" values="1;0" keyTimes="0;1" dur="0.4672897196261683s" begin="-0.15576323987538943s" repeatCount="indefinite"></animate>
  </rect>
</g><g transform="rotate(240 50 50)">
  <rect x="47" y="24" rx="3" ry="6" width="6" height="12" fill="#df1317">
    <animate attributeName="opacity" values="1;0" keyTimes="0;1" dur="0.4672897196261683s" begin="-0.11682242990654207s" repeatCount="indefinite"></animate>
  </rect>
</g><g transform="rotate(270 50 50)">
  <rect x="47" y="24" rx="3" ry="6" width="6" height="12" fill="#df1317">
    <animate attributeName="opacity" values="1;0" keyTimes="0;1" dur="0.4672897196261683s" begin="-0.07788161993769471s" repeatCount="indefinite"></animate>
  </rect>
</g><g transform="rotate(300 50 50)">
  <rect x="47" y="24" rx="3" ry="6" width="6" height="12" fill="#df1317">
    <animate attributeName="opacity" values="1;0" keyTimes="0;1" dur="0.4672897196261683s" begin="-0.038940809968847356s" repeatCount="indefinite"></animate>
  </rect>
</g><g transform="rotate(330 50 50)">
  <rect x="47" y="24" rx="3" ry="6" width="6" height="12" fill="#df1317">
    <animate attributeName="opacity" values="1;0" keyTimes="0;1" dur="0.4672897196261683s" begin="0s" repeatCount="indefinite"></animate>
  </rect>
</g>
<!-- [ldio] generated by https://loading.io/ --></svg>