<?xml version="1.0" encoding="UTF-8" standalone="no" ?>
<!DOCTYPE svg PUBLIC "-//W3C//DTD SVG 1.1//EN" "http://www.w3.org/Graphics/SVG/1.1/DTD/svg11.dtd">
<svg xmlns="http://www.w3.org/2000/svg" xmlns:xlink="http://www.w3.org/1999/xlink" version="1.1" width="400" height="400" viewBox="0 0 400 400" xml:space="preserve">
<desc>Created with Fabric.js 3.6.2</desc>
<defs>
</defs>
<g transform="matrix(0.39 0 0 0.39 200 143.71)" id="Layer_1"  >
<path style="stroke: none; stroke-width: 1; stroke-dasharray: none; stroke-linecap: butt; stroke-dashoffset: 0; stroke-linejoin: miter; stroke-miterlimit: 4; fill: black; fill-rule: nonzero; opacity: 1;"  transform=" translate(-256, -111.9)" d="M 256 111.9 C 256 111.9 256 111.9 256 111.9 L 256 111.9 z" stroke-linecap="round" />
</g>
<g transform="matrix(0.39 0 0 0.39 200 199.98)" id="Layer_1"  >
<path style="stroke: none; stroke-width: 1; stroke-dasharray: none; stroke-linecap: butt; stroke-dashoffset: 0; stroke-linejoin: miter; stroke-miterlimit: 4; fill: black; fill-rule: nonzero; opacity: 1;"  transform=" translate(-256, -255.95)" d="M 349.2 334.8 c -11.2 -3.9 -29.5 -5.1 -37.5 -8.2 c -5.6 -2.2 -14.5 -4.5 -17.3 -8 c -2.9 -3.4 -2.9 -28.1 -2.9 -28.1 s 7 -6.5 9.9 -13.8 c 2.9 -7.3 4.8 -27.1 4.8 -27.1 s 0.6 0.2 1.5 0.2 c 2.1 0 5.9 -1.4 7.7 -10.6 c 2.2 -11.3 6.4 -17.2 5.3 -25.5 c -0.8 -5.6 -3.2 -6.5 -4.6 -6.5 c -0.7 0 -1.2 0.2 -1.2 0.2 s 5.7 -8.4 5.7 -37 c 0 -29.4 -22.7 -58.4 -64.6 -58.5 c -42 0.1 -64.6 29.1 -64.6 58.5 c 0 28.5 5.7 37 5.7 37 s -0.5 -0.2 -1.2 -0.2 c -1.5 0 -3.9 0.9 -4.6 6.5 c -1.1 8.3 3 14.3 5.3 25.5 c 1.8 9.2 5.6 10.6 7.7 10.6 c 0.9 0 1.5 -0.2 1.5 -0.2 s 1.9 19.9 4.8 27.1 c 2.9 7.3 9.9 13.8 9.9 13.8 s 0 24.7 -2.9 28.1 c -2.9 3.4 -11.7 5.8 -17.3 8 c -8 3.1 -26.3 4.3 -37.5 8.2 c -11.2 3.9 -45.8 20.2 -45.8 65.2 H 395 C 395 355 360.5 338.7 349.2 334.8 z" stroke-linecap="round" />
</g>
<g transform="matrix(0.39 0 0 0.39 140.14 200)" id="Layer_1"  >
<path style="stroke: none; stroke-width: 1; stroke-dasharray: none; stroke-linecap: butt; stroke-dashoffset: 0; stroke-linejoin: miter; stroke-miterlimit: 4; fill: black; fill-rule: nonzero; opacity: 1;"  transform=" translate(-102.75, -256)" d="M 144.1 322 c 9 -4.5 17.8 -4.5 24.6 -5.4 c 0 0 3.8 -6.2 -8.7 -8.4 c 0 0 -17.1 -4.3 -19.1 -6.7 c -2 -2.4 -0.8 -15.7 -0.8 -15.7 s 23.9 -0.8 33.4 -9.2 c -15.5 -23.2 -7.2 -50.3 -10.4 -75.6 C 160 175.8 144.9 160 116 160 c -0.1 0 0 0 -1 0 v 0 c -28 0 -42.4 15.8 -45.6 41.1 c -3.2 25.3 6 55.4 -9.9 75.7 c 8.9 7.9 30.9 8.3 33.4 8.3 c 0.2 0 0.2 0 0.2 0 c 0 0 0.1 -0.1 0.1 -0.1 s 1 14.2 -1 16.6 c -2 2.4 -7.9 4.6 -11.9 5.5 c -8.8 1.9 -18.1 5 -25.8 7.7 C 46.8 317.4 32 333 32 352 h 80.2 C 114.4 344 129.5 329.4 144.1 322 z" stroke-linecap="round" />
</g>
<g transform="matrix(0.39 0 0 0.39 259.84 200)" id="Layer_1"  >
<path style="stroke: none; stroke-width: 1; stroke-dasharray: none; stroke-linecap: butt; stroke-dashoffset: 0; stroke-linejoin: miter; stroke-miterlimit: 4; fill: black; fill-rule: nonzero; opacity: 1;"  transform=" translate(-409.2, -256)" d="M 399.8 352 H 480 c 0 -19 -14.8 -34.6 -22.5 -37.3 c -7.7 -2.7 -17.1 -5.8 -25.8 -7.7 c -4.1 -0.9 -9.9 -3.1 -11.9 -5.5 c -2 -2.4 -1 -16.6 -1 -16.6 s 0.1 0.1 0.1 0.1 c 0 0 0.1 0 0.2 0 c 2.5 0 24.6 -0.3 33.5 -8.3 c -15.9 -20.3 -6.8 -50.4 -10 -75.7 C 439.4 175.8 425 160 397 160 v 0 c -1 0 -1 0 -1 0 c -28.9 0 -44.1 15.8 -47.2 41.1 c -3.2 25.3 5.1 52.4 -10.4 75.6 c 9.5 8.4 33.4 9.2 33.4 9.2 s 1.2 13.3 -0.8 15.7 s -19.1 6.7 -19.1 6.7 c -12.5 2.2 -8.7 8.4 -8.7 8.4 c 6.8 0.9 15.7 0.9 24.6 5.4 C 382.5 329.4 397.6 344 399.8 352 z" stroke-linecap="round" />
</g>
</svg>