<?xml version="1.0" encoding="UTF-8" standalone="no" ?>
<!DOCTYPE svg PUBLIC "-//W3C//DTD SVG 1.1//EN" "http://www.w3.org/Graphics/SVG/1.1/DTD/svg11.dtd">
<svg xmlns="http://www.w3.org/2000/svg" xmlns:xlink="http://www.w3.org/1999/xlink" version="1.1" width="400" height="400" viewBox="0 0 400 400" xml:space="preserve">
<desc>Created with Fabric.js 3.6.2</desc>
<defs>
</defs>
<g transform="matrix(7.14 0 0 7.14 200 200)" id="board_background_frame_school_chalkboard_billboard_chalk_blackboard_backdrop_classroom"  >
<path 
style="stroke: none; stroke-width: 1; stroke-dasharray: none; stroke-linecap: butt; stroke-dashoffset: 0; 
stroke-linejoin: miter; stroke-miterlimit: 4; fill: black; fill-rule: nonzero; opacity: 1;" 
 transform=" translate(-16, -16)" d="M 27 4 H 17 V 3 a 1 1 0 0 0 -2 0 V 4 H 5 A 3 3 0 0 0 2 7 V 23 a 3 3 0 0 0 3 3 h 6.7 l -1.55 2.47 a 1 1 0 0 0 0.32 1.38 a 1 1 0 0 0 1.38 -0.32 L 14.05 26 H 18 l 2.2 3.53 a 1 1 0 0 0 1.38 0.32 a 1 1 0 0 0 0.32 -1.38 L 20.3 26 H 27 a 3 3 0 0 0 3 -3 V 7 A 3 3 0 0 0 27 4 Z M 4 7 A 1 1 0 0 1 5 6 H 27 a 1 1 0 0 1 1 1 V 20 H 26 V 19 a 3 3 0 0 0 -3 -3 H 21 a 3 3 0 0 0 -3 3 v 1 H 4 Z M 24 20 H 20 V 19 a 1 1 0 0 1 1 -1 h 2 a 1 1 0 0 1 1 1 Z m 4 3 a 1 1 0 0 1 -1 1 H 5 a 1 1 0 0 1 -1 -1 V 22 H 28 Z" stroke-linecap="round" />
</g>
</svg>